<svg width="208" height="56" viewBox="0 0 208 56" fill="none" xmlns="http://www.w3.org/2000/svg">
<path d="M3.312 47V13.4H9.792V41.96H24.528V47H3.312ZM38.0936 47.576C36.0776 47.576 34.4136 47.256 33.1016 46.616C31.7896 45.944 30.8136 45.064 30.1736 43.976C29.5656 42.856 29.2616 41.624 29.2616 40.28C29.2616 38.808 29.6296 37.512 30.3656 36.392C31.1336 35.272 32.2696 34.392 33.7736 33.752C35.3096 33.112 37.2296 32.792 39.5336 32.792H45.5336C45.5336 31.608 45.3736 30.632 45.0536 29.864C44.7336 29.064 44.2376 28.472 43.5656 28.088C42.8936 27.704 41.9976 27.512 40.8776 27.512C39.6616 27.512 38.6216 27.784 37.7576 28.328C36.9256 28.84 36.4136 29.64 36.2216 30.728H29.9336C30.0936 29 30.6536 27.512 31.6136 26.264C32.6056 24.984 33.9016 23.992 35.5016 23.288C37.1336 22.584 38.9416 22.232 40.9256 22.232C43.1976 22.232 45.1656 22.616 46.8296 23.384C48.4936 24.152 49.7736 25.256 50.6696 26.696C51.5656 28.136 52.0136 29.912 52.0136 32.024V47H46.5416L45.8216 43.304C45.4696 43.944 45.0536 44.52 44.5736 45.032C44.0936 45.544 43.5336 45.992 42.8936 46.376C42.2536 46.76 41.5336 47.048 40.7336 47.24C39.9336 47.464 39.0536 47.576 38.0936 47.576ZM39.6296 42.584C40.4616 42.584 41.1976 42.44 41.8376 42.152C42.5096 41.832 43.0856 41.416 43.5656 40.904C44.0456 40.36 44.4136 39.752 44.6696 39.08C44.9576 38.376 45.1496 37.624 45.2456 36.824V36.776H40.3016C39.3096 36.776 38.4936 36.904 37.8536 37.16C37.2456 37.384 36.7976 37.72 36.5096 38.168C36.2216 38.616 36.0776 39.128 36.0776 39.704C36.0776 40.344 36.2216 40.872 36.5096 41.288C36.7976 41.704 37.2136 42.024 37.7576 42.248C38.3016 42.472 38.9256 42.584 39.6296 42.584ZM72.3626 47.576C71.1146 47.576 69.9946 47.416 69.0026 47.096C68.0426 46.776 67.1786 46.344 66.4106 45.8C65.6746 45.224 65.0506 44.584 64.5386 43.88L63.8186 47H58.0586V12.44H64.5386V26.168C65.3066 25.048 66.3146 24.12 67.5626 23.384C68.8426 22.616 70.4266 22.232 72.3146 22.232C74.5546 22.232 76.5386 22.792 78.2666 23.912C80.0266 25 81.4026 26.504 82.3946 28.424C83.4186 30.312 83.9306 32.488 83.9306 34.952C83.9306 37.352 83.4186 39.512 82.3946 41.432C81.4026 43.352 80.0426 44.856 78.3146 45.944C76.5866 47.032 74.6026 47.576 72.3626 47.576ZM70.8266 41.912C72.1066 41.912 73.2266 41.624 74.1866 41.048C75.1786 40.44 75.9466 39.624 76.4906 38.6C77.0346 37.544 77.3066 36.328 77.3066 34.952C77.3066 33.576 77.0346 32.36 76.4906 31.304C75.9466 30.216 75.1786 29.384 74.1866 28.808C73.2266 28.2 72.1066 27.896 70.8266 27.896C69.5786 27.896 68.4586 28.2 67.4666 28.808C66.5066 29.384 65.7386 30.2 65.1626 31.256C64.6186 32.312 64.3466 33.528 64.3466 34.904C64.3466 36.28 64.6186 37.512 65.1626 38.6C65.7386 39.656 66.5066 40.472 67.4666 41.048C68.4586 41.624 69.5786 41.912 70.8266 41.912Z" fill="white"/>
<path d="M89.6558 47V13.4H97.3838L107.656 34.376L117.832 13.4H125.56V47H119.08V24.44L110.2 42.296H105.064L96.1358 24.44V47H89.6558ZM140.187 47.576C138.171 47.576 136.507 47.256 135.195 46.616C133.883 45.944 132.907 45.064 132.267 43.976C131.659 42.856 131.355 41.624 131.355 40.28C131.355 38.808 131.723 37.512 132.459 36.392C133.227 35.272 134.363 34.392 135.867 33.752C137.403 33.112 139.323 32.792 141.627 32.792H147.627C147.627 31.608 147.467 30.632 147.147 29.864C146.827 29.064 146.331 28.472 145.659 28.088C144.987 27.704 144.091 27.512 142.971 27.512C141.755 27.512 140.715 27.784 139.851 28.328C139.019 28.84 138.507 29.64 138.315 30.728H132.027C132.187 29 132.747 27.512 133.707 26.264C134.699 24.984 135.995 23.992 137.595 23.288C139.227 22.584 141.035 22.232 143.019 22.232C145.291 22.232 147.259 22.616 148.923 23.384C150.587 24.152 151.867 25.256 152.763 26.696C153.659 28.136 154.107 29.912 154.107 32.024V47H148.635L147.915 43.304C147.563 43.944 147.147 44.52 146.667 45.032C146.187 45.544 145.627 45.992 144.987 46.376C144.347 46.76 143.627 47.048 142.827 47.24C142.027 47.464 141.147 47.576 140.187 47.576ZM141.723 42.584C142.555 42.584 143.291 42.44 143.931 42.152C144.603 41.832 145.179 41.416 145.659 40.904C146.139 40.36 146.507 39.752 146.763 39.08C147.051 38.376 147.243 37.624 147.339 36.824V36.776H142.395C141.403 36.776 140.587 36.904 139.947 37.16C139.339 37.384 138.891 37.72 138.603 38.168C138.315 38.616 138.171 39.128 138.171 39.704C138.171 40.344 138.315 40.872 138.603 41.288C138.891 41.704 139.307 42.024 139.851 42.248C140.395 42.472 141.019 42.584 141.723 42.584ZM170.767 47C169.071 47 167.583 46.744 166.303 46.232C165.055 45.688 164.079 44.808 163.375 43.592C162.671 42.344 162.319 40.648 162.319 38.504V28.232H158.191V22.808H162.319L163.039 16.232H168.799V22.808H175.183V28.232H168.799V38.6C168.799 39.688 169.039 40.44 169.519 40.856C169.999 41.272 170.815 41.48 171.967 41.48H175.135V47H170.767ZM191.643 47.576C189.211 47.576 187.051 47.064 185.163 46.04C183.307 44.984 181.851 43.528 180.795 41.672C179.771 39.784 179.259 37.608 179.259 35.144C179.259 32.616 179.771 30.392 180.795 28.472C181.851 26.52 183.307 25 185.163 23.912C187.019 22.792 189.179 22.232 191.643 22.232C194.043 22.232 196.139 22.76 197.931 23.816C199.723 24.872 201.115 26.296 202.107 28.088C203.099 29.88 203.595 31.912 203.595 34.184C203.595 34.504 203.595 34.872 203.595 35.288C203.595 35.672 203.563 36.072 203.499 36.488H183.867V32.552H197.067C196.971 30.984 196.411 29.752 195.387 28.856C194.395 27.96 193.147 27.512 191.643 27.512C190.555 27.512 189.547 27.768 188.619 28.28C187.691 28.76 186.955 29.512 186.411 30.536C185.899 31.56 185.643 32.856 185.643 34.424V35.816C185.643 37.128 185.883 38.28 186.363 39.272C186.875 40.232 187.579 40.984 188.475 41.528C189.371 42.04 190.411 42.296 191.595 42.296C192.779 42.296 193.755 42.04 194.523 41.528C195.323 41.016 195.915 40.36 196.299 39.56H202.923C202.475 41.064 201.723 42.424 200.667 43.64C199.611 44.856 198.315 45.816 196.779 46.52C195.243 47.224 193.531 47.576 191.643 47.576Z" fill="#1D3853"/>
</svg>
